<svg width="24" height="24" viewBox="0 0 24 24" fill="none" xmlns="http://www.w3.org/2000/svg">
<path d="M8 4.5C8 3.30653 8.47411 2.16193 9.31802 1.31802C10.1619 0.474106 11.3065 0 12.5 0C13.6935 0 14.8381 0.474106 15.682 1.31802C16.5259 2.16193 17 3.30653 17 4.5V12C17 13.1935 16.5259 14.3381 15.682 15.182C14.8381 16.0259 13.6935 16.5 12.5 16.5C11.3065 16.5 10.1619 16.0259 9.31802 15.182C8.47411 14.3381 8 13.1935 8 12V4.5Z" fill="#FC6767"/>
<path d="M5.75 9.75C5.94891 9.75 6.13968 9.82902 6.28033 9.96967C6.42098 10.1103 6.5 10.3011 6.5 10.5V12C6.5 13.5913 7.13214 15.1174 8.25736 16.2426C9.38258 17.3679 10.9087 18 12.5 18C14.0913 18 15.6174 17.3679 16.7426 16.2426C17.8679 15.1174 18.5 13.5913 18.5 12V10.5C18.5 10.3011 18.579 10.1103 18.7197 9.96967C18.8603 9.82902 19.0511 9.75 19.25 9.75C19.4489 9.75 19.6397 9.82902 19.7803 9.96967C19.921 10.1103 20 10.3011 20 10.5V12C20 13.8593 19.3094 15.6523 18.0622 17.0312C16.8149 18.4101 15.1 19.2766 13.25 19.4625V22.5H17.75C17.9489 22.5 18.1397 22.579 18.2803 22.7197C18.421 22.8603 18.5 23.0511 18.5 23.25C18.5 23.4489 18.421 23.6397 18.2803 23.7803C18.1397 23.921 17.9489 24 17.75 24H7.25C7.05109 24 6.86032 23.921 6.71967 23.7803C6.57902 23.6397 6.5 23.4489 6.5 23.25C6.5 23.0511 6.57902 22.8603 6.71967 22.7197C6.86032 22.579 7.05109 22.5 7.25 22.5H11.75V19.4625C9.90003 19.2766 8.18506 18.4101 6.93782 17.0312C5.69058 15.6523 4.99998 13.8593 5 12V10.5C5 10.3011 5.07902 10.1103 5.21967 9.96967C5.36032 9.82902 5.55109 9.75 5.75 9.75Z" fill="#FC6767"/>
</svg>
