<svg width="24" height="24" viewBox="0 0 24 24" fill="none" xmlns="http://www.w3.org/2000/svg">
<path fill-rule="evenodd" clip-rule="evenodd" d="M2.77778 0C1.79594 0 1 0.795938 1 1.77778V20.1481C1 21.13 1.79594 21.9259 2.77778 21.9259H10.1852V22.8148C10.1852 23.4694 10.7158 24 11.3704 24H21.4444C22.099 24 22.6296 23.4694 22.6296 22.8148V20.7407V19.5556V5.03705C22.6296 4.38249 22.099 3.85186 21.4444 3.85186H14.6296V1.77778C14.6296 0.795938 13.8337 0 12.8519 0H2.77778ZM18.1852 20.7407H14.6296V22.8148H18.1852V20.7407ZM11.3704 20.7407H13.4445V22.8148H11.3704V20.7407ZM19.3704 22.8148V20.7407H21.4444V22.8148H19.3704ZM21.4444 5.03705V19.5556H11.3704V5.03705H21.4444ZM10.1852 18.3704V19.5556V20.7407H5.74073V18.3704H10.1852ZM10.1852 10.5874V17.1852H2.18519V1.77778C2.18519 1.4505 2.4505 1.18519 2.77778 1.18519H12.8519C13.1791 1.18519 13.4444 1.4505 13.4444 1.77778V3.85186H11.3704C11.0656 3.85186 10.7876 3.96692 10.5776 4.15598C10.3958 4.12622 10.2027 4.18147 10.0624 4.32173L7.81482 6.56935L5.5672 4.32173C5.33577 4.09031 4.96057 4.09031 4.72914 4.32173C4.49772 4.55315 4.49772 4.92836 4.72914 5.15978L6.97677 7.4074L4.72911 9.65506C4.49769 9.88649 4.49769 10.2617 4.72911 10.4931C4.96053 10.7245 5.33574 10.7245 5.56716 10.4931L7.81482 8.24545L10.0625 10.4931C10.1 10.5306 10.1413 10.5621 10.1852 10.5874ZM8.65287 7.4074L10.1852 5.87509V8.9397L8.65287 7.4074ZM4.55554 18.3704H2.18519V20.1481C2.18519 20.4754 2.4505 20.7407 2.77778 20.7407H4.55554V18.3704ZM19.0741 10.6667C19.0741 12.1394 17.8801 13.3333 16.4074 13.3333C14.9346 13.3333 13.7407 12.1394 13.7407 10.6667C13.7407 9.19391 14.9346 8 16.4074 8C17.8801 8 19.0741 9.19391 19.0741 10.6667ZM20.2592 10.6667C20.2592 12.794 18.5347 14.5185 16.4074 14.5185C14.2801 14.5185 12.5555 12.794 12.5555 10.6667C12.5555 8.53935 14.2801 6.81482 16.4074 6.81482C18.5347 6.81482 20.2592 8.53935 20.2592 10.6667Z" fill="#FF223C"/>
</svg>
