<svg width="24" height="24" viewBox="0 0 24 24" fill="none" xmlns="http://www.w3.org/2000/svg">
<path d="M18.75 12C18.75 15.147 17.9111 17.9501 16.6074 19.9366C15.2982 21.9316 13.6038 23 11.875 23C10.1462 23 8.4518 21.9316 7.14258 19.9366C5.83894 17.9501 5 15.147 5 12C5 8.85305 5.83894 6.04987 7.14258 4.06337C8.4518 2.06838 10.1462 1 11.875 1C13.6038 1 15.2982 2.06838 16.6074 4.06337C17.9111 6.04987 18.75 8.85305 18.75 12Z" stroke="#FC6767" stroke-width="2"/>
<path d="M8 16H9.46417L10.2804 13.5676H13.7196L14.5296 16H16L12.7539 7H11.2461L8 16ZM11.9439 8.57796H12.0498L13.3458 12.4449H10.6542L11.9439 8.57796Z" fill="#FC6767"/>
</svg>
