<svg width="24" height="24" viewBox="0 0 24 24" fill="none" xmlns="http://www.w3.org/2000/svg">
<path fill-rule="evenodd" clip-rule="evenodd" d="M15.7714 19.388C16.9536 17.5865 17.75 14.9802 17.75 12C17.75 9.0198 16.9536 6.41346 15.7714 4.61203C14.578 2.79361 13.158 2 11.875 2C10.592 2 9.17197 2.79361 7.97863 4.61203C6.79644 6.41346 6 9.0198 6 12C6 14.9802 6.79644 17.5865 7.97863 19.388C9.17197 21.2064 10.592 22 11.875 22C13.158 22 14.578 21.2064 15.7714 19.388ZM11.875 24C16.2242 24 19.75 18.6274 19.75 12C19.75 5.37258 16.2242 0 11.875 0C7.52576 0 4 5.37258 4 12C4 18.6274 7.52576 24 11.875 24Z" fill="#FF223C"/>
<path d="M8 16H9.46417L10.2804 13.5676H13.7196L14.5296 16H16L12.7539 7H11.2461L8 16ZM11.9439 8.57796H12.0498L13.3458 12.4449H10.6542L11.9439 8.57796Z" fill="#FF223C"/>
</svg>
