<svg width="24" height="24" viewBox="0 0 24 24" fill="none" xmlns="http://www.w3.org/2000/svg">
<path fill-rule="evenodd" clip-rule="evenodd" d="M22 4C22 3.44772 21.5523 3 21 3H3C2.44772 3 2 3.44772 2 4L2 14.2353C2 14.7876 2.44772 15.2353 3 15.2353H21C21.5523 15.2353 22 14.7876 22 14.2353V4ZM2 1C0.895431 1 0 1.89543 0 3V15.2353C0 16.3399 0.89543 17.2353 2 17.2353H22C23.1046 17.2353 24 16.3399 24 15.2353V3C24 1.89543 23.1046 1 22 1H2Z" fill="#FF223C"/>
<path d="M9.17645 15.8235H14.8235V21.4706H9.17645V15.8235Z" fill="#FF223C"/>
<path d="M4.94116 20.7647C4.94116 19.985 5.57323 19.353 6.35293 19.353H17.647C18.4267 19.353 19.0588 19.985 19.0588 20.7647C19.0588 21.5444 18.4267 22.1765 17.647 22.1765H6.35293C5.57323 22.1765 4.94116 21.5444 4.94116 20.7647Z" fill="#FF223C"/>
<path d="M5.22104 12.136C5.58111 12.136 5.79336 11.9162 5.79336 11.5409V7.5423H6.92662C7.23363 7.5423 7.44209 7.36416 7.44209 7.06853C7.44209 6.77289 7.23742 6.59475 6.92662 6.59475H3.51925C3.20467 6.59475 3 6.77289 3 7.06853C3 7.36416 3.20846 7.5423 3.51925 7.5423H4.64873V11.5409C4.64873 11.9162 4.86098 12.136 5.22104 12.136Z" fill="#FF223C"/>
<path d="M8.42768 12.064H11.0277C11.3423 12.064 11.547 11.8858 11.547 11.5902C11.547 11.2946 11.3385 11.1164 11.0277 11.1164H9V9.73681H10.9292C11.2173 9.73681 11.4068 9.57004 11.4068 9.29715C11.4068 9.02426 11.2135 8.85749 10.9292 8.85749H9V7.5423H11.0277C11.3385 7.5423 11.547 7.36416 11.547 7.06853C11.547 6.77289 11.3423 6.59475 11.0277 6.59475H8.42768C8.06762 6.59475 7.85537 6.81458 7.85537 7.18981V11.4651C7.85537 11.8441 8.06762 12.064 8.42768 12.064Z" fill="#FF223C"/>
<path d="M14.151 12.1549C15.5155 12.1549 16.3531 11.4803 16.3531 10.4115C16.3531 9.58141 15.8528 9.11522 14.693 8.88402L14.1169 8.76653C13.4688 8.63766 13.2072 8.4292 13.2072 8.09187C13.2072 7.69012 13.5825 7.4248 14.1472 7.4248C14.6172 7.4248 14.9697 7.59536 15.1516 8.00849C15.2805 8.24348 15.4397 8.34582 15.6974 8.34582C15.9892 8.34582 16.1863 8.1601 16.1863 7.8872C16.1863 7.78866 16.1712 7.70907 16.1446 7.63326C15.9021 6.92071 15.1478 6.5 14.1472 6.5C12.9306 6.5 12.0588 7.16328 12.0588 8.16389C12.0588 8.97877 12.5932 9.50182 13.6848 9.71786L14.2647 9.83156C14.9507 9.9718 15.2085 10.1765 15.2085 10.5365C15.2085 10.9383 14.7915 11.2339 14.1775 11.2339C13.6545 11.2339 13.2262 11.0444 13.0481 10.6275C12.9116 10.3849 12.7562 10.294 12.5212 10.294C12.2256 10.294 12.0171 10.4948 12.0171 10.7981C12.0171 10.9004 12.0399 11.0065 12.0778 11.1051C12.2976 11.7039 13.0215 12.1549 14.151 12.1549Z" fill="#FF223C"/>
<path d="M18.779 12.136C19.139 12.136 19.3513 11.9162 19.3513 11.5409V7.5423H20.4845C20.7915 7.5423 21 7.36416 21 7.06853C21 6.77289 20.7953 6.59475 20.4845 6.59475H17.0772C16.7626 6.59475 16.5579 6.77289 16.5579 7.06853C16.5579 7.36416 16.7664 7.5423 17.0772 7.5423H18.2066V11.5409C18.2066 11.9162 18.4189 12.136 18.779 12.136Z" fill="#FF223C"/>
</svg>
