<svg width="24" height="24" viewBox="0 0 24 24" fill="none" xmlns="http://www.w3.org/2000/svg">
<path fill-rule="evenodd" clip-rule="evenodd" d="M0.024047 8.99155C0.035624 9.044 0.0900777 9.07293 0.141806 9.05846L14.2736 5.10586C14.3333 5.08918 14.3636 5.02287 14.3371 4.96688L13.2021 2.56173C12.9658 2.06106 12.3761 1.85713 11.8849 2.10623L0.559347 7.84973C0.137058 8.06389 -0.0749218 8.54316 0.024047 8.99155ZM4 11C3.44772 11 3 11.4477 3 12V21C3 21.5523 3.44772 22 4 22H23C23.5523 22 24 21.5523 24 21V12C24 11.4477 23.5523 11 23 11H4ZM6.74052 18.0305C7.56894 18.0305 8.24052 17.3589 8.24052 16.5305C8.24052 15.7021 7.56894 15.0305 6.74052 15.0305C5.91209 15.0305 5.24052 15.7021 5.24052 16.5305C5.24052 17.3589 5.91209 18.0305 6.74052 18.0305ZM0.274227 10.8487C0.132641 10.3149 0.450025 9.76513 0.983123 9.62082L17.8113 5.06546C18.3444 4.92115 18.8913 5.23692 19.0329 5.77075L20.1213 9.87437C20.1381 9.93782 20.0903 10 20.0246 10H3.00001C2.44772 10 2.00001 10.4477 2.00001 11V16.5884C2.00001 16.7055 1.83336 16.7272 1.80335 16.614L0.274227 10.8487Z" fill="#FF223C"/>
</svg>
