<svg width="24" height="24" viewBox="0 0 24 24" fill="none" xmlns="http://www.w3.org/2000/svg">
<path d="M2.69008 15.8303C4.36449 15.8303 5.38012 14.5173 5.38012 12.4174V12.4083C5.38012 10.3084 4.36449 8.99999 2.69008 8.99999C1.01566 8.99999 3.05175e-05 10.3084 3.05175e-05 12.4083V12.4174C3.05175e-05 14.5173 1.01566 15.8303 2.69008 15.8303ZM2.69008 14.7232C1.86659 14.7232 1.39538 13.8677 1.39538 12.4174V12.4083C1.39538 10.958 1.86659 10.1071 2.69008 10.1071C3.51356 10.1071 3.98478 10.958 3.98478 12.4083V12.4174C3.98478 13.8677 3.51356 14.7232 2.69008 14.7232Z" fill="#FF223C"/>
<path d="M7.83685 15.716H9.20475V9.11436H7.83227L6.12583 10.2993V11.5253L7.8094 10.3816H7.83685V15.716Z" fill="#FF223C"/>
<path d="M11.3504 11.5253C11.7621 11.5253 12.0915 11.2005 12.0915 10.7842C12.0915 10.3725 11.7621 10.0431 11.3504 10.0431C10.9341 10.0431 10.6092 10.3725 10.6092 10.7842C10.6092 11.2005 10.9341 11.5253 11.3504 11.5253ZM11.3504 14.7827C11.7621 14.7827 12.0915 14.4533 12.0915 14.0415C12.0915 13.6252 11.7621 13.3004 11.3504 13.3004C10.9341 13.3004 10.6092 13.6252 10.6092 14.0415C10.6092 14.4533 10.9341 14.7827 11.3504 14.7827Z" fill="#FF223C"/>
<path d="M15.3763 15.8303C16.918 15.8303 17.9428 15.0343 17.9428 13.854V13.8448C17.9428 12.9481 17.3023 12.3808 16.3233 12.2893V12.2619C17.0965 12.1018 17.7004 11.5665 17.7004 10.743V10.7339C17.7004 9.69537 16.7854 8.99999 15.3626 8.99999C13.9764 8.99999 13.0477 9.75027 12.9562 10.894L12.9516 10.9489H14.2188L14.2234 10.9077C14.2783 10.3953 14.7175 10.0614 15.3626 10.0614C16.0122 10.0614 16.3919 10.3816 16.3919 10.9169V10.926C16.3919 11.4613 15.9436 11.8273 15.2528 11.8273H14.5162V12.8109H15.2711C16.0671 12.8109 16.5383 13.1586 16.5383 13.7899V13.7991C16.5383 14.3389 16.0808 14.7186 15.3717 14.7186C14.658 14.7186 14.1914 14.3664 14.1319 13.8951L14.1228 13.8448H12.8052L12.8098 13.9043C12.9013 15.0434 13.8803 15.8303 15.3763 15.8303Z" fill="#FF223C"/>
<path d="M21.4563 15.8303C22.9249 15.8303 24 14.8696 24 13.52V13.5108C24 12.2756 23.1262 11.3698 21.8498 11.3698C20.9577 11.3698 20.308 11.8181 20.0473 12.4312H20.0198C20.0198 12.3625 20.0244 12.271 20.029 12.1796C20.0793 11.0129 20.5002 10.0934 21.4655 10.0934C22.0053 10.0934 22.3713 10.3633 22.536 10.7613L22.5498 10.8025H23.9131L23.9039 10.7568C23.7072 9.73655 22.7465 8.99999 21.4701 8.99999C19.7499 8.99999 18.7023 10.2993 18.7023 12.4632V12.4723C18.7023 14.7095 19.8643 15.8303 21.4563 15.8303ZM20.2303 13.552V13.5429C20.2303 12.8704 20.761 12.39 21.4518 12.39C22.138 12.39 22.655 12.8749 22.655 13.5612V13.5703C22.655 14.22 22.1106 14.7323 21.4381 14.7323C20.761 14.7323 20.2303 14.2154 20.2303 13.552Z" fill="#FF223C"/>
</svg>
