<svg width="24" height="24" viewBox="0 0 24 24" fill="none" xmlns="http://www.w3.org/2000/svg">
<path d="M12 2C9.34783 2 6.8043 3.05357 4.92893 4.92893C3.05357 6.8043 2 9.34783 2 12V14H4C4.53043 14 5.03914 14.2107 5.41421 14.5858C5.78929 14.9609 6 15.4696 6 16V22C6 22.5304 5.78929 23.0391 5.41421 23.4142C5.03914 23.7893 4.53043 24 4 24H2C1.46957 24 0.960859 23.7893 0.585786 23.4142C0.210714 23.0391 0 22.5304 0 22V12C-2.34822e-08 10.4241 0.310389 8.86371 0.913445 7.4078C1.5165 5.95189 2.40042 4.62902 3.51472 3.51472C4.62902 2.40042 5.95189 1.5165 7.4078 0.913446C8.86371 0.310389 10.4241 0 12 0C13.5759 0 15.1363 0.310389 16.5922 0.913446C18.0481 1.5165 19.371 2.40042 20.4853 3.51472C21.5996 4.62902 22.4835 5.95189 23.0866 7.4078C23.6896 8.86371 24 10.4241 24 12V22C24 22.5304 23.7893 23.0391 23.4142 23.4142C23.0391 23.7893 22.5304 24 22 24H20C19.4696 24 18.9609 23.7893 18.5858 23.4142C18.2107 23.0391 18 22.5304 18 22V16C18 15.4696 18.2107 14.9609 18.5858 14.5858C18.9609 14.2107 19.4696 14 20 14H22V12C22 9.34783 20.9464 6.8043 19.0711 4.92893C17.1957 3.05357 14.6522 2 12 2Z" fill="#FC6767"/>
</svg>
